<?xml version="1.0" encoding="utf-8"?>
<!-- Generator: Adobe Illustrator 16.0.4, SVG Export Plug-In . SVG Version: 6.00 Build 0)  -->
<!DOCTYPE svg PUBLIC "-//W3C//DTD SVG 1.1//EN" "http://www.w3.org/Graphics/SVG/1.1/DTD/svg11.dtd">
<svg version="1.1" id="Capa_1" xmlns="http://www.w3.org/2000/svg" xmlns:xlink="http://www.w3.org/1999/xlink" x="0px" y="0px"
	 width="612px" height="792px" viewBox="0 0 612 792" enable-background="new 0 0 612 792" xml:space="preserve">
<path d="M587.826,276.966c-16.116-37.332-37.944-69.768-65.484-97.308s-59.976-49.368-97.308-65.484
	C387.702,98.058,348.024,90,306,90c-28.152,0-55.284,3.672-81.396,11.016c-26.112,7.344-50.49,17.646-73.134,30.906
	c-22.644,13.26-43.248,29.172-61.812,47.736c-18.564,18.564-34.476,39.168-47.736,61.812c-13.26,22.645-23.562,47.022-30.906,73.134
	C3.672,340.716,0,367.848,0,396c0,28.152,3.672,55.284,11.016,81.396c7.344,26.111,17.646,50.488,30.906,73.134
	c13.26,22.644,29.172,43.249,47.736,61.812c18.564,18.564,39.168,34.477,61.812,47.736c22.644,13.26,47.022,23.561,73.134,30.906
	C250.716,698.328,277.848,702,306,702c28.152,0,55.284-3.672,81.396-11.016c26.112-7.345,50.489-17.646,73.135-30.906
	c22.644-13.259,43.249-29.172,61.812-47.736c18.564-18.563,34.477-39.168,47.736-61.812c13.26-22.646,23.561-47.023,30.906-73.134
	C608.328,451.284,612,424.152,612,396C612,353.976,603.942,314.298,587.826,276.966z M442.476,563.076
	c0,7.752-3.876,11.628-11.628,11.628H181.152c-3.264,0-6.018-1.122-8.262-3.366c-2.244-2.244-3.366-4.998-3.366-8.262V321.948
	c0-3.264,1.122-5.916,3.366-7.956c2.244-2.04,4.998-3.06,8.262-3.06h249.696c3.265,0,6.019,1.02,8.264,3.06
	c2.242,2.04,3.364,4.692,3.364,7.956V563.076z M457.776,277.884c0,7.752-3.876,11.628-11.628,11.628H165.852
	c-3.264,0-6.018-1.122-8.262-3.366c-2.244-2.244-3.366-4.998-3.366-8.262v-33.048c0-3.264,1.122-6.018,3.366-8.262
	c2.244-2.244,4.998-3.366,8.262-3.366h94.86V218.52c0-3.264,1.122-6.018,3.366-8.262c2.244-2.244,4.998-3.366,8.262-3.366h67.933
	c3.264,0,6.018,1.122,8.262,3.366c2.244,2.244,3.366,4.998,3.366,8.262v14.688h94.248c7.752,0,11.628,3.876,11.628,11.628V277.884z"
	/>
</svg>
