<?xml version="1.0" encoding="utf-8"?>
<!-- Generator: Adobe Illustrator 16.0.4, SVG Export Plug-In . SVG Version: 6.00 Build 0)  -->
<!DOCTYPE svg PUBLIC "-//W3C//DTD SVG 1.1//EN" "http://www.w3.org/Graphics/SVG/1.1/DTD/svg11.dtd">
<svg version="1.1" id="Capa_1" xmlns="http://www.w3.org/2000/svg" xmlns:xlink="http://www.w3.org/1999/xlink" x="0px" y="0px"
	 width="612px" height="792px" viewBox="0 0 612 792" enable-background="new 0 0 612 792" xml:space="preserve">
<path d="M315.792,437.616l27.54,27.54l-41.004,12.852L315.792,437.616z M612,396c0,28.152-3.672,55.284-11.016,81.396
	c-7.346,26.11-17.646,50.488-30.906,73.134c-13.26,22.644-29.172,43.248-47.736,61.812c-18.562,18.564-39.168,34.478-61.812,47.736
	c-22.646,13.26-47.022,23.562-73.135,30.906C361.284,698.328,334.152,702,306,702c-28.152,0-55.284-3.672-81.396-11.016
	c-26.112-7.346-50.49-17.646-73.134-30.906c-22.644-13.26-43.248-29.172-61.812-47.736c-18.564-18.562-34.476-39.168-47.736-61.812
	c-13.26-22.646-23.562-47.022-30.906-73.134C3.672,451.284,0,424.152,0,396c0-28.152,3.672-55.284,11.016-81.396
	c7.344-26.112,17.646-50.49,30.906-73.134c13.26-22.644,29.172-43.248,47.736-61.812c18.564-18.564,39.168-34.476,61.812-47.736
	c22.644-13.26,47.022-23.562,73.134-30.906C250.716,93.672,277.848,90,306,90c42.024,0,81.702,8.058,119.034,24.174
	c37.332,16.116,69.768,37.944,97.308,65.484s49.368,59.976,65.484,97.308S612,353.976,612,396z M494.496,342.756
	c0-1.632-0.816-3.264-2.448-4.896l-48.96-49.572c-3.672-2.856-6.936-2.856-9.792,0l-4.896,4.896v-77.112
	c0-6.528-3.266-9.792-9.792-9.792h-146.88l-0.612-0.612h-18.972c-0.408,0-0.612,0.204-0.612,0.612h-2.448v1.224l-75.276,73.44
	c0,0.408-0.204,0.816-0.612,1.224v1.224v20.196v253.98c0,6.526,3.264,9.792,9.792,9.792h69.768h95.473h70.381
	c6.526,0,9.792-3.47,9.792-10.404v-95.472c0-2.04-0.408-3.57-1.226-4.592c-0.814-1.02-2.244-0.51-4.284,1.53l-4.896,4.896
	c-2.04,2.04-4.794,4.59-8.262,7.648c-3.47,3.062-8.06,7.446-13.771,13.158v50.796h-47.736h-95.472H205.02V307.26h66.096
	c2.448,0,3.672-1.224,3.672-3.672v-64.872h121.176v86.904l-95.472,95.472c-0.408,0.408-1.02,1.428-1.836,3.062l-23.868,72.827
	c-0.816,2.447-0.204,4.691,1.836,6.731c1.224,1.632,2.856,2.448,4.896,2.448c0.408,0,0.714-0.104,0.918-0.308
	c0.204-0.202,0.51-0.306,0.918-0.306l73.44-23.868c0.816,0,1.836-0.61,3.062-1.836l132.19-132.191
	C493.68,346.02,494.496,344.388,494.496,342.756z"/>
</svg>
