<?xml version="1.0" encoding="utf-8"?>
<!-- Generator: Adobe Illustrator 16.0.4, SVG Export Plug-In . SVG Version: 6.00 Build 0)  -->
<!DOCTYPE svg PUBLIC "-//W3C//DTD SVG 1.1//EN" "http://www.w3.org/Graphics/SVG/1.1/DTD/svg11.dtd">
<svg version="1.1" id="Capa_1" xmlns="http://www.w3.org/2000/svg" xmlns:xlink="http://www.w3.org/1999/xlink" x="0px" y="0px"
	 width="612px" height="792px" viewBox="0 0 612 792" enable-background="new 0 0 612 792" xml:space="preserve">
<path d="M306,313.38c11.832,0,23.052,2.142,33.66,6.426c10.606,4.284,19.788,10.2,27.54,17.748
	c7.752,7.548,13.872,16.32,18.358,26.316c4.488,9.996,6.732,20.706,6.732,32.13s-2.244,22.134-6.732,32.13
	c-4.486,9.996-10.606,18.77-18.358,26.316s-16.934,13.464-27.54,17.748c-10.608,4.282-21.828,6.426-33.66,6.426
	s-23.052-2.144-33.66-6.426c-10.608-4.284-19.788-10.2-27.54-17.748s-13.872-16.32-18.36-26.316
	c-4.488-9.996-6.732-20.706-6.732-32.13s2.244-22.134,6.732-32.13c4.488-9.996,10.608-18.768,18.36-26.316
	c7.752-7.548,16.932-13.464,27.54-17.748C282.948,315.522,294.168,313.38,306,313.38z M306,525.132
	c18.768,0,36.312-3.366,52.632-10.098c16.32-6.732,30.602-15.912,42.84-27.54c12.24-11.628,21.932-25.296,29.07-41.004
	s10.71-32.538,10.71-50.49s-3.57-34.782-10.71-50.49s-16.83-29.376-29.07-41.004c-12.238-11.628-26.52-20.808-42.84-27.54
	c-16.32-6.732-33.864-10.098-52.632-10.098c-18.768,0-36.312,3.366-52.632,10.098c-16.32,6.732-30.6,15.912-42.84,27.54
	c-12.24,11.628-21.93,25.296-29.07,41.004s-10.71,32.538-10.71,50.49s3.57,34.782,10.71,50.49s16.83,29.376,29.07,41.004
	c12.24,11.628,26.52,20.808,42.84,27.54C269.688,521.766,287.232,525.132,306,525.132z M306,224.028
	c27.744,0,54.162,3.264,79.254,9.792c25.092,6.528,48.246,14.994,69.462,25.398c21.216,10.404,40.394,22.134,57.528,35.19
	c17.136,13.056,31.722,25.908,43.758,38.556s21.216,24.582,27.54,35.802c6.324,11.22,9.486,20.298,9.486,27.234
	c0,6.936-3.162,16.014-9.486,27.234c-6.324,11.22-15.504,23.152-27.54,35.802c-12.036,12.646-26.622,25.5-43.758,38.556
	c-17.136,13.058-36.312,24.786-57.528,35.19c-21.216,10.402-44.37,18.87-69.462,25.396c-25.092,6.528-51.51,9.792-79.254,9.792
	c-28.152,0-54.672-3.264-79.56-9.792c-24.888-6.526-47.94-14.994-69.156-25.396c-21.216-10.404-40.392-22.134-57.528-35.19
	c-17.136-13.056-31.722-25.908-43.758-38.556c-12.036-12.648-21.216-24.582-27.54-35.802c-6.324-11.222-9.486-20.3-9.486-27.234
	c0-6.936,3.162-16.014,9.486-27.234c6.324-11.22,15.504-23.154,27.54-35.802s26.622-25.5,43.758-38.556
	c17.136-13.056,36.312-24.786,57.528-35.19c21.216-10.404,44.268-18.87,69.156-25.398C251.328,227.292,277.848,224.028,306,224.028z
	"/>
</svg>
