<?xml version="1.0" encoding="iso-8859-1"?>
<!-- Generator: Adobe Illustrator 16.0.0, SVG Export Plug-In . SVG Version: 6.00 Build 0)  -->
<!DOCTYPE svg PUBLIC "-//W3C//DTD SVG 1.1//EN" "http://www.w3.org/Graphics/SVG/1.1/DTD/svg11.dtd">
<svg version="1.1" id="Capa_1" xmlns="http://www.w3.org/2000/svg" xmlns:xlink="http://www.w3.org/1999/xlink" x="0px" y="0px"
	 width="506.812px" height="506.812px" viewBox="0 0 506.812 506.812" style="enable-background:new 0 0 506.812 506.812;"
	 xml:space="preserve">
<g>
	<path fill="#DBB94F" d="M361.204,0H97.796C86.034,0,76.5,12.728,76.5,24.49v396.26h306V239.062h9.562l0.038,136.18
		c-0.2,2.161-1.683,21.516,9.716,34.052c5.871,6.455,14.124,9.869,23.858,9.869c9.209,0,17.05-3.309,22.673-9.572
		c10.958-12.202,9.944-31.499,9.572-35.716l2.189-211.657l-19.125-0.201l-2.199,212.718l0.057,0.564
		c0.325,3.06,0.498,15.691-4.733,21.506c-1.243,1.387-3.471,3.223-8.443,3.223c-5.728,0-8.262-2.037-9.668-3.576
		c-4.905-5.346-5.163-15.846-4.81-20.312V219.938H382.5V24.49C382.5,12.728,372.966,0,361.204,0z M334.688,172.125H133.875V57.375
		h200.812V172.125z M250.088,375.538c-12.202-16.562-32.895-47.535-34.941-69.662c0,0,0.402,43.098,15.348,75.983
		c-0.612,0.076-1.1,0.114-1.435,0.114c-5.25,0.039-50.06-1.08-50.48-61.802c-0.42-60.722,59.899-95.195,59.899-95.195
		c-12.297,61.286,39.159,64.26,39.446,106.412C278.097,355.782,263.466,368.835,250.088,375.538z"/>
	<rect fill="#DBB94F" x="38.25" y="439.875" width="372.938" height="66.938"/>
	<path fill="#DBB94F" d="M392.062,76.347l8.74,3.088c-0.335,10.28,0.956,26.192,10.5,37.351c4.848,5.671,11.953,9.276,19.01,11.093V153h38.25
		V62.787l-76.5-24.384V76.347z M430.312,118.298c-4.714-1.416-8.635-3.883-11.915-7.708c-6.675-7.784-8.042-19.154-7.937-27.75
		l19.852,7.009V118.298z"/>
</g>
<g>
</g>
<g>
</g>
<g>
</g>
<g>
</g>
<g>
</g>
<g>
</g>
<g>
</g>
<g>
</g>
<g>
</g>
<g>
</g>
<g>
</g>
<g>
</g>
<g>
</g>
<g>
</g>
<g>
</g>
</svg>
