<?xml version="1.0" encoding="utf-8"?>
<!-- Generator: Adobe Illustrator 16.0.4, SVG Export Plug-In . SVG Version: 6.00 Build 0)  -->
<!DOCTYPE svg PUBLIC "-//W3C//DTD SVG 1.1//EN" "http://www.w3.org/Graphics/SVG/1.1/DTD/svg11.dtd">
<svg version="1.1" id="Capa_1" xmlns="http://www.w3.org/2000/svg" xmlns:xlink="http://www.w3.org/1999/xlink" x="0px" y="0px"
	 width="612px" height="792px" viewBox="0 0 612 792" enable-background="new 0 0 612 792" xml:space="preserve">
<path d="M306,702c-28.152,0-55.284-3.672-81.396-11.016c-26.112-7.346-50.49-17.646-73.134-30.906
	c-22.644-13.26-43.248-29.172-61.812-47.736c-18.564-18.562-34.476-39.168-47.736-61.812c-13.26-22.646-23.562-47.022-30.906-73.134
	C3.672,451.284,0,424.152,0,396c0-28.152,3.672-55.284,11.016-81.396c7.344-26.112,17.646-50.49,30.906-73.134
	c13.26-22.644,29.172-43.248,47.736-61.812c18.564-18.564,39.168-34.476,61.812-47.736c22.644-13.26,47.022-23.562,73.134-30.906
	C250.716,93.672,277.848,90,306,90c42.024,0,81.702,8.058,119.034,24.174c37.332,16.116,69.768,37.944,97.308,65.484
	s49.368,59.976,65.484,97.308S612,353.976,612,396c0,28.152-3.672,55.284-11.016,81.396c-7.346,26.11-17.646,50.488-30.906,73.134
	c-13.26,22.644-29.172,43.248-47.736,61.812c-18.562,18.564-39.168,34.478-61.812,47.736c-22.646,13.26-47.022,23.562-73.135,30.906
	C361.284,698.328,334.152,702,306,702z M493.884,309.708l-48.96-49.572c-1.632-1.632-3.876-2.448-6.73-2.448
	c-2.856,0-5.102,0.816-6.732,2.448L239.292,452.304L180.54,392.94c-4.488-3.672-8.976-3.672-13.464,0l-48.96,49.572
	c-1.632,1.633-2.448,3.876-2.448,6.732c0,2.448,0.816,4.488,2.448,6.12L232.56,569.808c2.04,2.04,4.284,3.062,6.732,3.062h0.612
	c2.856,0,4.896-1.021,6.12-3.062l247.86-247.248c2.04-2.04,3.062-4.284,3.062-6.732C496.944,313.38,495.924,311.34,493.884,309.708z
	"/>
</svg>
