<?xml version="1.0" encoding="iso-8859-1"?>
<!-- Generator: Adobe Illustrator 17.1.0, SVG Export Plug-In . SVG Version: 6.00 Build 0)  -->
<!DOCTYPE svg PUBLIC "-//W3C//DTD SVG 1.1//EN" "http://www.w3.org/Graphics/SVG/1.1/DTD/svg11.dtd">
<svg version="1.1" id="Capa_1" xmlns="http://www.w3.org/2000/svg" xmlns:xlink="http://www.w3.org/1999/xlink" x="0px" y="0px"
	 viewBox="0 0 238.265 238.265" style="enable-background:new 0 0 238.265 238.265;" xml:space="preserve">
<path style="fill:#DBB94F;" d="M232.657,103.511l-16.554-23.105c-3.265-4.559-10.215-8.129-15.822-8.129h-51.683V67.42h47.188
	c5.213,0,9.454-4.241,9.454-9.454V24.552c0-5.213-4.241-9.454-9.454-9.454h-58.239c-5.213,0-9.454,4.241-9.454,9.454v3.836H94.262
	c-4.114,0-7.461,3.347-7.461,7.461v24.11c0,4.114,3.347,7.461,7.461,7.461h48.137v4.856H82.366c-5.642,0-12.455,3.713-15.513,8.452
	L43.46,116.978c-2.461,3.814-8.122,8.416-12.362,10.046l-21.452,8.247C4.236,137.351,0,143.518,0,149.312v40.869
	c0,6.031,4.906,10.938,10.938,10.938h11.381c3.706,12.723,15.464,22.049,29.365,22.049s25.659-9.326,29.365-22.049h65.416
	c3.706,12.723,15.464,22.049,29.366,22.049c13.901,0,25.658-9.326,29.364-22.049h22.132c6.031,0,10.938-4.906,10.938-10.938v-69.215
	C238.265,115.567,235.802,107.9,232.657,103.511z M123.584,86.817h18.814v40.429l-22.555,0.955L123.584,86.817z M51.684,207.772
	c-8.391,0-15.193-6.804-15.193-15.193c0-8.392,6.803-15.193,15.193-15.193s15.194,6.802,15.194,15.193
	C66.878,200.969,60.074,207.772,51.684,207.772z M61.723,130.661c-3.993,0.169-5.556-2.483-3.474-5.895L77.633,93.02
	c2.082-3.411,7.056-6.202,11.053-6.202h21.42l-3.793,41.956L61.723,130.661z M148.598,126.984V86.817h13.398l3.566,39.448
	L148.598,126.984z M175.831,207.772c-8.392,0-15.193-6.804-15.193-15.193c0-8.392,6.802-15.193,15.193-15.193
	c8.39,0,15.192,6.802,15.192,15.193C191.023,200.969,184.221,207.772,175.831,207.772z M210.534,124.362l-31.545,1.335l-3.515-38.88
	h21.239c3.997,0,8.403,3.066,9.794,6.813l8.759,23.612C216.656,120.989,214.527,124.193,210.534,124.362z"/>
<g>
</g>
<g>
</g>
<g>
</g>
<g>
</g>
<g>
</g>
<g>
</g>
<g>
</g>
<g>
</g>
<g>
</g>
<g>
</g>
<g>
</g>
<g>
</g>
<g>
</g>
<g>
</g>
<g>
</g>
</svg>
