<?xml version="1.0" encoding="iso-8859-1"?>
<!-- Generator: Adobe Illustrator 16.0.0, SVG Export Plug-In . SVG Version: 6.00 Build 0)  -->
<!DOCTYPE svg PUBLIC "-//W3C//DTD SVG 1.1//EN" "http://www.w3.org/Graphics/SVG/1.1/DTD/svg11.dtd">
<svg version="1.1" id="Capa_1" xmlns="http://www.w3.org/2000/svg" xmlns:xlink="http://www.w3.org/1999/xlink" x="0px" y="0px"
	 width="501.393px" height="501.393px" viewBox="0 0 501.393 501.393" style="enable-background:new 0 0 501.393 501.393;"
	 xml:space="preserve">
<g>
	<g>
		<path fill="#DBB94F" d="M246.788,263.002c10.33-9.363,33.501-29.854,44.24-35.225c14.74-7.37,71.963-7.942,89.148-7.942
			c4.854,0,9.695,0.04,14.508,0.116v-33.532v-60.728c-16.748,0-246.541,0-246.541,0l-75.959,64.906l-52.976,17.928l-6.25,22.041
			L0,244.099v26.221h4.535H5.21v8.246l31.33,0.031c0-0.01-0.001-0.021-0.001-0.031h0.093c0.244,21.328,17.587,38.536,38.953,38.536
			c21.374,0,38.708-17.208,38.954-38.536h71.523L246.788,263.002z M75.584,292.844c-8.015,0-14.534-6.441-14.696-14.426h-0.09
			c0.069-8.039,6.632-14.57,14.704-14.57c8.118,0,14.72,6.599,14.72,14.695c0,0.008-0.001,0.016-0.001,0.022h0.056
			C90.037,286.482,83.549,292.844,75.584,292.844z M102.639,191.377l55.424-51.167h53.286v51.167H102.639z"/>
		<path fill="#DBB94F" d="M501.393,346.502l-0.021-35.643l-8.125-25.486l-38.016-42.917c0,0-4.076-4.212-13.164-4.997
			c-60.615-4.676-133.256-1.361-144.154,4.087c-10.895,5.449-43.588,35.417-43.588,35.417l-77.246,19.799l-7.212,20.158
			l-6.747,5.912l4.619,24.461h5.473v8.211h27.628c4.432,11.799,15.815,20.197,29.162,20.197c16.277,0,29.632-12.49,31.02-28.406
			l158.617,0.002c1.389,15.916,14.74,28.404,31.018,28.404c13.348,0,24.73-8.398,29.162-20.197h16.676v-8.207h4.873
			c0-0.225-0.008-0.447-0.018-0.672L501.393,346.502z M230,356.047c-6.341,0-11.492-5.156-11.492-11.504
			c0-6.326,5.151-11.479,11.492-11.479c6.342,0,11.498,5.153,11.498,11.479C241.498,350.889,236.342,356.047,230,356.047z
			 M363.967,278.775h-76.52l21.707-27.135c0,0,35.264-2.96,54.814-3.257v30.392H363.967z M383.643,278.775v-30.392
			c30.797-0.678,53.59,2.272,53.59,2.272l22.93,28.119L383.643,278.775L383.643,278.775z M450.654,356.047
			c-6.34,0-11.494-5.156-11.494-11.504c0-6.326,5.152-11.479,11.494-11.479c6.34,0,11.498,5.153,11.498,11.479
			C462.15,350.889,456.994,356.047,450.654,356.047z"/>
	</g>
</g>
<g>
</g>
<g>
</g>
<g>
</g>
<g>
</g>
<g>
</g>
<g>
</g>
<g>
</g>
<g>
</g>
<g>
</g>
<g>
</g>
<g>
</g>
<g>
</g>
<g>
</g>
<g>
</g>
<g>
</g>
</svg>
