<?xml version="1.0" encoding="utf-8"?>
<!-- Generator: Adobe Illustrator 16.0.4, SVG Export Plug-In . SVG Version: 6.00 Build 0)  -->
<!DOCTYPE svg PUBLIC "-//W3C//DTD SVG 1.1//EN" "http://www.w3.org/Graphics/SVG/1.1/DTD/svg11.dtd">
<svg version="1.1" id="Capa_1" xmlns="http://www.w3.org/2000/svg" xmlns:xlink="http://www.w3.org/1999/xlink" x="0px" y="0px"
	 width="612px" height="792px" viewBox="0 0 612 792" enable-background="new 0 0 612 792" xml:space="preserve">
<path d="M587.826,276.966c-16.116-37.332-37.944-69.768-65.484-97.308s-59.976-49.368-97.308-65.484
	C387.702,98.058,348.024,90,306,90c-28.152,0-55.284,3.672-81.396,11.016c-26.112,7.344-50.49,17.646-73.134,30.906
	c-22.644,13.26-43.248,29.172-61.812,47.736c-18.564,18.564-34.476,39.168-47.736,61.812c-13.26,22.645-23.562,47.022-30.906,73.134
	C3.672,340.716,0,367.848,0,396c0,28.152,3.672,55.284,11.016,81.396c7.344,26.111,17.646,50.488,30.906,73.134
	c13.26,22.644,29.172,43.249,47.736,61.812c18.564,18.564,39.168,34.477,61.812,47.736c22.644,13.26,47.022,23.561,73.134,30.906
	C250.716,698.328,277.848,702,306,702c28.152,0,55.284-3.672,81.396-11.016c26.112-7.345,50.489-17.646,73.135-30.906
	c22.644-13.259,43.249-29.172,61.812-47.736c18.564-18.563,34.477-39.168,47.736-61.812c13.26-22.646,23.561-47.023,30.906-73.134
	C608.328,451.284,612,424.152,612,396C612,353.976,603.942,314.298,587.826,276.966z M332.316,564.3h-162.18
	c-2.856,0-5.202-1.02-7.038-3.06s-2.754-4.284-2.754-6.732V304.812V285.84v-1.224c0-0.408,0.408-1.02,1.224-1.836l72.828-71.604
	v-1.836h2.448h1.224h18.36h0.612h143.82c2.855,0,5.202,1.02,7.038,3.06s2.754,4.284,2.754,6.732v108.324h-31.824v-86.292H260.1
	v63.648c0,2.448-1.224,3.672-3.672,3.672h-64.26v223.992h140.148V564.3z M497.556,486.576c0,3.264-1.836,4.896-5.508,4.896h-67.32
	v67.32c0,3.672-1.632,5.508-4.896,5.508h-47.124c-3.263,0-4.896-1.836-4.896-5.508v-67.32H299.88c-3.264,0-4.896-1.632-4.896-4.896
	v-47.124c0-3.264,1.632-4.896,4.896-4.896h67.933v-67.32c0-3.672,1.632-5.508,4.896-5.508h47.124c3.264,0,4.896,1.836,4.896,5.508
	v67.32h67.32c3.672,0,5.508,1.632,5.508,4.896V486.576z"/>
</svg>
