<?xml version="1.0" encoding="iso-8859-1"?>
<!-- Generator: Adobe Illustrator 16.0.0, SVG Export Plug-In . SVG Version: 6.00 Build 0)  -->
<!DOCTYPE svg PUBLIC "-//W3C//DTD SVG 1.1//EN" "http://www.w3.org/Graphics/SVG/1.1/DTD/svg11.dtd">
<svg version="1.1" id="Capa_1" xmlns="http://www.w3.org/2000/svg" xmlns:xlink="http://www.w3.org/1999/xlink" x="0px" y="0px"
	 width="31.742px" height="31.742px" viewBox="0 0 31.742 31.742" style="enable-background:new 0 0 31.742 31.742;"
	 xml:space="preserve">
<g>
	<g>
		<polygon fill="#DBB94F" points="5.497,4.335 2.199,4.335 2.199,10.226 5.497,7.634 		"/>
		<path fill="#DBB94F" d="M19.083,9.827c0.173-0.083,0.347-0.165,0.521-0.242l-7.508-5.808L0,13.131h2.199v14.834h6.597V16.97h3.422l0.27-0.583
			C13.867,13.398,16.159,11.25,19.083,9.827z"/>
		<path fill="#DBB94F" d="M21.98,12.705c-0.928,0.122-3.012,0.875-4.607,1.967c-0.902,0.617-1.758,1.379-2.558,2.299h0.58v10.994h6.596V14.667
			l-0.011,0.005V12.705z"/>
		<path fill="#DBB94F" d="M31.742,11.092l-4.908-4.576L26.48,9.037c-1.998,0.116-9.854,1.004-12.994,7.811c4.934-6.214,11.158-5.39,12.611-5.093
			l-0.334,2.384L31.742,11.092z"/>
	</g>
</g>
<g>
</g>
<g>
</g>
<g>
</g>
<g>
</g>
<g>
</g>
<g>
</g>
<g>
</g>
<g>
</g>
<g>
</g>
<g>
</g>
<g>
</g>
<g>
</g>
<g>
</g>
<g>
</g>
<g>
</g>
</svg>
