<?xml version="1.0" encoding="iso-8859-1"?>
<!-- Generator: Adobe Illustrator 16.0.0, SVG Export Plug-In . SVG Version: 6.00 Build 0)  -->
<!DOCTYPE svg PUBLIC "-//W3C//DTD SVG 1.1//EN" "http://www.w3.org/Graphics/SVG/1.1/DTD/svg11.dtd">
<svg version="1.1" id="Capa_1" xmlns="http://www.w3.org/2000/svg" xmlns:xlink="http://www.w3.org/1999/xlink" x="0px" y="0px"
	 width="170.982px" height="170.982px" viewBox="0 0 170.982 170.982" style="enable-background:new 0 0 170.982 170.982;"
	 xml:space="preserve">
<g>
	<g>
		<path style="fill:#DBB94F;" d="M170.144,62.085c-4.062-9.393-32.72-42.719-50.931-46.493c-14.876-3.081-43.364,4.966-33.075,26.449
			c10.285,21.472,63.835,29.995,70.101,31.166C162.496,74.384,174.212,71.477,170.144,62.085z M132.619,44.205
			c-2.583-0.078-24.612-0.124-30.09-8.086c-5.481-7.973,5.439-12.993,11.6-12.698c7.546,0.359,21.141,11.943,23.368,15.456
			C139.724,42.384,135.204,44.283,132.619,44.205z"/>
		<path style="fill:#DBB94F;" d="M81.536,62.975c-9.871-3.945-53.803-1.63-68.112,15.795c-11.697,14.241-23.198,54.29,0,62.192
			c23.195,7.901,63.288-45.719,68.112-51.82C86.359,83.036,91.409,66.931,81.536,62.975z M32.334,96.849
			c-1.303,3.212-4.394,21.328-14.714,17.813c-10.322-3.518-2.543-21.334,2.04-28.13c3.388-5.037,10.13-8.78,14.516-7.032
			C38.565,81.249,35.292,89.552,32.334,96.849z"/>
		<path style="fill:#DBB94F;" d="M95.027,92.913c-11.699,14.243-23.202,54.293,0,62.184c23.195,7.901,71.765-37.018,69.28-47.363
			C160.828,93.197,109.337,75.487,95.027,92.913z M113.933,110.981c-1.297,3.218-4.394,21.335-14.709,17.828
			c-10.326-3.52-2.544-21.336,2.036-28.141c3.395-5.029,10.128-8.779,14.517-7.028C120.171,95.397,116.888,103.689,113.933,110.981z
			"/>
	</g>
</g>
<g>
</g>
<g>
</g>
<g>
</g>
<g>
</g>
<g>
</g>
<g>
</g>
<g>
</g>
<g>
</g>
<g>
</g>
<g>
</g>
<g>
</g>
<g>
</g>
<g>
</g>
<g>
</g>
<g>
</g>
</svg>
