<?xml version="1.0" encoding="iso-8859-1"?>
<!-- Generator: Adobe Illustrator 18.0.0, SVG Export Plug-In . SVG Version: 6.00 Build 0)  -->
<!DOCTYPE svg PUBLIC "-//W3C//DTD SVG 1.1//EN" "http://www.w3.org/Graphics/SVG/1.1/DTD/svg11.dtd">
<svg version="1.1" id="Capa_1" xmlns="http://www.w3.org/2000/svg" xmlns:xlink="http://www.w3.org/1999/xlink" x="0px" y="0px"
	 viewBox="0 0 395 395" style="enable-background:new 0 0 395 395;" xml:space="preserve">
<g>
	<path fill="none" d="M313.002,0H82C36.785,0,0,36.784,0,81.998v230.993C0,358.211,36.785,395,82,395h231.002
		C358.216,395,395,358.211,395,312.991V81.998C395,36.784,358.216,0,313.002,0z M380,312.991C380,349.94,349.944,380,313.002,380H82
		c-36.944,0-67-30.06-67-67.009V81.998C15,45.056,45.056,15,82,15h231.002C349.944,15,380,45.056,380,81.998V312.991z"/>
	<path fill="#DBB94F" d="M206.066,148.713c4.365,10.594,7.783,21.242,10.447,32.552c0.126,0.531,0.467,0.985,0.942,1.254
		c0.296,0.168,0.628,0.253,0.961,0.253c0.201,0,0.403-0.031,0.599-0.094l29.854-9.277c0.525-0.164,0.958-0.541,1.191-1.039
		c0.232-0.499,0.245-1.072,0.033-1.58l-1.786-4.289c-8.732-20.961-21.787-41.733-39.907-63.502
		c-8.58-10.351-18.352-20.709-29.042-30.785c-9.336-8.803-17.988-16.208-26.451-22.639c-0.818-0.622-1.977-0.504-2.655,0.271
		c-1.467,1.68-4.529,5.229-4.529,5.229c-0.662,0.769-0.628,1.915,0.08,2.642c0.002,0.002,0.845,0.866,1.092,1.13
		c0.869,0.926,1.73,1.863,2.587,2.81c1.669,1.842,3.344,3.746,5.121,5.823c4.078,4.757,8.242,9.904,12.376,15.301
		c8.47,11.063,16.124,22.38,22.749,33.636c0.49,0.833,0.956,1.649,1.431,2.473L86.083,187.55
		c-5.423,3.544-6.945,10.813-3.401,16.235c2.25,3.443,6.002,5.314,9.829,5.314c2.201,0,4.427-0.619,6.406-1.913l103.194-67.442
		C203.527,142.774,204.852,145.764,206.066,148.713z"/>
	<polygon fill="#DBB94F" points="216.034,256.409 168.184,284.909 107.006,343.877 302.5,343.877 302.5,150.247 259.32,175.203 	"/>
	<polygon fill="#DBB94F" points="150.636,240.431 127.918,232.899 125.895,243.949 131.37,261.082 148.5,255.605 	"/>
	<polygon fill="#DBB94F" points="120.637,288.958 136.684,297.078 145.724,290.864 142.523,269.946 122.581,273.271 	"/>
	<polygon fill="#DBB94F" points="185.995,221.684 174.267,223.639 173.122,232.867 182.561,237.645 187.879,233.993 	"/>
	<polygon fill="#DBB94F" points="200.577,216.508 197.659,229.288 203.646,234.588 217.876,228.639 212.013,215.122 	"/>
	<polygon fill="#DBB94F" points="175.588,248.105 174.932,253.372 180.318,256.096 183.352,254.009 182.275,246.991 	"/>
	<polygon fill="#DBB94F" points="156.7,257.949 160.986,263.21 165.885,261.166 165.58,255.138 162.266,253.537 	"/>
</g>
<g>
</g>
<g>
</g>
<g>
</g>
<g>
</g>
<g>
</g>
<g>
</g>
<g>
</g>
<g>
</g>
<g>
</g>
<g>
</g>
<g>
</g>
<g>
</g>
<g>
</g>
<g>
</g>
<g>
</g>
</svg>
