<?xml version="1.0" encoding="iso-8859-1"?>
<!-- Generator: Adobe Illustrator 16.0.0, SVG Export Plug-In . SVG Version: 6.00 Build 0)  -->
<!DOCTYPE svg PUBLIC "-//W3C//DTD SVG 1.1//EN" "http://www.w3.org/Graphics/SVG/1.1/DTD/svg11.dtd">
<svg version="1.1" id="Capa_1" xmlns="http://www.w3.org/2000/svg" xmlns:xlink="http://www.w3.org/1999/xlink" x="0px" y="0px"
	 width="79.537px" height="79.537px" viewBox="0 0 79.537 79.537" style="enable-background:new 0 0 79.537 79.537;"
	 xml:space="preserve">
<g>
	<path fill="#DBB94F" d="M36.631,29.392c0.472,1.362,1.559,1.548,0,2.069l-4.132,2.068l-4.13-4.137
		c-0.551-1.618,0.127-2.657,2.069-4.135l4.135,2.061C35.072,27.955,36.471,28.915,36.631,29.392z M32.499,12.842
		c-1.245-0.608-2.742-0.461-4.13,0c-0.732,0.238-1.219,1.331-2.073,2.068v6.204l6.203-2.069c1.709-1.939,2.478-2.926,2.074-4.135
		C34.244,13.951,33.757,13.474,32.499,12.842z M49.509,21.179l-0.466-0.06c-0.238,0.08-2.009-1.406-4.127-2.069
		c-1.027-0.35-1.038,0.404-2.076,0c-1.463,0.5-1.709,1.724-2.074,4.137c-0.35,2.424-0.805,5.844,0,8.272
		c0.223,0.657,1.256,1.245,2.074,2.068l2.076,2.066h2.061c2.693-1.176,3.719-3.993,4.133-4.135c0.974-0.583,1.729-2.312,2.071-4.138
		c0.331-1.833,0.569-2.429,0-4.135C52.528,21.247,50.809,20.75,49.509,21.179z M49.043,39.732v4.138
		c1.03,0.917,2.118,1.766,4.138,2.071l4.132-2.071l-2.071-6.206L49.043,39.732z M73.861,39.732c-2.765-3.06-4.235-3.425-8.279-2.073
		h-2.066c-1.916,1.695-2.801,3.006-4.132,6.206c-1.3,3.055-2.651,6.514-2.071,8.27c0.052,0.14,1.688,1.941,4.132,4.137
		c2.584,2.129,3.821,3.423,4.133,4.138l8.274-2.077c0.891-0.289,4.345-7.647,4.132-8.264C76.326,45.082,75.545,41.635,73.861,39.732
		z M67.721,79.427c-0.021-0.14-0.14-0.408-0.072-0.408c-1.549-2.206-8.182-7.431-8.27-8.275c-0.099-0.891-1.947-4.105-4.138-6.197
		c-0.938-1.481-1.025-2.615-2.071-4.133c-1.035-1.507-2.978-4.598-4.132-6.203l-7.796-4.909c-1.134-0.601-7.646-0.383-16.718-9.978
		l-0.303-5.799c-1.214-1.486-3.749-5.049-4.124-6.206c-2.393-7.12-0.806-12.943-2.074-22.742l-4.596-3.079L7.924,0.441
		C6.067-0.338,1.808,0.153,1.808,0.153L1.544,79.537h8.208h57.99h0.166L67.721,79.427z"/>
</g>
<g>
</g>
<g>
</g>
<g>
</g>
<g>
</g>
<g>
</g>
<g>
</g>
<g>
</g>
<g>
</g>
<g>
</g>
<g>
</g>
<g>
</g>
<g>
</g>
<g>
</g>
<g>
</g>
<g>
</g>
</svg>
