<?xml version="1.0" encoding="iso-8859-1"?>
<!-- Generator: Adobe Illustrator 16.0.0, SVG Export Plug-In . SVG Version: 6.00 Build 0)  -->
<!DOCTYPE svg PUBLIC "-//W3C//DTD SVG 1.1//EN" "http://www.w3.org/Graphics/SVG/1.1/DTD/svg11.dtd">
<svg version="1.1" id="Capa_1" xmlns="http://www.w3.org/2000/svg" xmlns:xlink="http://www.w3.org/1999/xlink" x="0px" y="0px"
	 width="38.912px" height="38.912px" viewBox="0 0 38.912 38.912" style="enable-background:new 0 0 38.912 38.912;"
	 xml:space="preserve">
<g>
	<g>
		<polygon fill="#DBB94F" points="28.848,13.84 23.48,13.84 26.164,18.488 		"/>
		<polygon fill="#DBB94F" points="9.393,14.227 6.709,18.875 12.076,18.875 		"/>
		<polygon fill="#DBB94F" points="22.811,14.227 20.127,18.875 25.494,18.875 		"/>
		<polygon fill="#DBB94F" points="29.52,14.227 26.835,18.875 32.203,18.875 		"/>
		<polygon fill="#DBB94F" points="32.203,19.648 26.835,19.648 29.52,24.298 		"/>
		<polygon fill="#DBB94F" points="25.494,19.648 20.127,19.648 22.811,24.298 		"/>
		<polygon fill="#DBB94F" points="12.076,19.648 6.709,19.648 9.393,24.298 		"/>
		<polygon fill="#DBB94F" points="6.038,20.037 3.354,24.686 8.721,24.686 		"/>
		<polygon fill="#DBB94F" points="12.747,20.037 10.063,24.686 15.43,24.686 		"/>
		<polygon fill="#DBB94F" points="19.456,20.037 16.772,24.686 22.141,24.686 		"/>
		<polygon fill="#DBB94F" points="26.164,20.037 23.48,24.686 28.848,24.686 		"/>
		<polygon fill="#DBB94F" points="32.873,20.037 30.189,24.686 35.557,24.686 		"/>
		<polygon fill="#DBB94F" points="26.164,8.416 23.48,13.065 28.848,13.065 		"/>
		<polygon fill="#DBB94F" points="35.557,25.46 30.189,25.46 32.873,30.107 		"/>
		<polygon fill="#DBB94F" points="28.848,25.46 23.48,25.46 26.164,30.107 		"/>
		<polygon fill="#DBB94F" points="22.141,25.46 16.772,25.46 19.456,30.107 		"/>
		<polygon fill="#DBB94F" points="15.43,25.46 10.063,25.46 12.747,30.107 		"/>
		<polygon fill="#DBB94F" points="8.721,25.46 3.354,25.46 6.038,30.107 		"/>
		<polygon fill="#DBB94F" points="2.684,25.848 0,30.496 5.367,30.496 		"/>
		<polygon fill="#DBB94F" points="9.393,25.848 6.709,30.496 12.076,30.496 		"/>
		<polygon fill="#DBB94F" points="16.101,25.848 13.418,30.496 18.784,30.496 		"/>
		<polygon fill="#DBB94F" points="22.811,25.848 20.127,30.496 25.494,30.496 		"/>
		<polygon fill="#DBB94F" points="29.52,25.848 26.835,30.496 32.203,30.496 		"/>
		<polygon fill="#DBB94F" points="36.229,25.848 33.544,30.496 38.912,30.496 		"/>
	</g>
</g>
<g>
</g>
<g>
</g>
<g>
</g>
<g>
</g>
<g>
</g>
<g>
</g>
<g>
</g>
<g>
</g>
<g>
</g>
<g>
</g>
<g>
</g>
<g>
</g>
<g>
</g>
<g>
</g>
<g>
</g>
</svg>
