<?xml version="1.0" encoding="iso-8859-1"?>
<!-- Generator: Adobe Illustrator 16.0.0, SVG Export Plug-In . SVG Version: 6.00 Build 0)  -->
<!DOCTYPE svg PUBLIC "-//W3C//DTD SVG 1.1//EN" "http://www.w3.org/Graphics/SVG/1.1/DTD/svg11.dtd">
<svg xmlns="http://www.w3.org/2000/svg" xmlns:xlink="http://www.w3.org/1999/xlink" version="1.1" id="Capa_1" x="0px" y="0px" width="512px" height="512px" viewBox="0 0 45.163 45.163" style="enable-background:new 0 0 45.163 45.163;" xml:space="preserve">
<g>
	<g>
		<path d="M12.096,7.492c2.008,0,3.635-1.627,3.635-3.633c0-0.998-0.411-1.889-1.064-2.543c-2.207,0.83-4.25,1.996-6.068,3.436    C8.995,6.324,10.399,7.492,12.096,7.492z" fill="#dbb94f"/>
		<path d="M3.744,10.031c-1.318,1.99-2.328,4.199-2.965,6.561c0.366,0.129,0.755,0.207,1.165,0.207c2.007,0,3.634-1.625,3.634-3.633    C5.578,11.817,4.836,10.656,3.744,10.031z" fill="#dbb94f"/>
		<circle cx="12.096" cy="13.165" r="3.634" fill="#dbb94f"/>
		<circle cx="22.171" cy="3.858" r="3.634" fill="#dbb94f"/>
		<path d="M32.323,7.492c1.87,0,3.396-1.42,3.594-3.238c-1.801-1.322-3.806-2.383-5.956-3.129c-0.773,0.664-1.271,1.635-1.271,2.734    C28.689,5.865,30.316,7.492,32.323,7.492z" fill="#dbb94f"/>
		<circle cx="22.171" cy="13.165" r="3.634" fill="#dbb94f"/>
		<circle cx="32.323" cy="13.165" r="3.634" fill="#dbb94f"/>
		<path d="M1.944,18.828c-0.624,0-1.202,0.172-1.715,0.447C0.082,20.317,0,21.379,0,22.462c0,1.084,0.081,2.146,0.229,3.187    c0.513,0.274,1.091,0.447,1.715,0.447c2.007,0,3.634-1.627,3.634-3.636C5.578,20.455,3.951,18.828,1.944,18.828z" fill="#dbb94f"/>
		<circle cx="12.096" cy="22.462" r="3.634" fill="#dbb94f"/>
		<path d="M1.944,28.134c-0.41,0-0.798,0.078-1.163,0.205c0.639,2.365,1.651,4.578,2.974,6.57c1.089-0.625,1.823-1.795,1.823-3.143    C5.578,29.762,3.951,28.134,1.944,28.134z" fill="#dbb94f"/>
		<circle cx="12.096" cy="31.768" r="3.634" fill="#dbb94f"/>
		<circle cx="22.171" cy="22.462" r="3.634" fill="#dbb94f"/>
		<circle cx="32.323" cy="22.462" r="3.634" fill="#dbb94f"/>
		<circle cx="22.171" cy="31.768" r="3.634" fill="#dbb94f"/>
		<circle cx="32.323" cy="31.768" r="3.634" fill="#dbb94f"/>
		<path d="M42.072,16.798c0.816,0,1.558-0.281,2.16-0.738c-0.684-2.309-1.726-4.463-3.063-6.4c-1.567,0.402-2.729,1.813-2.729,3.506    C38.438,15.173,40.064,16.798,42.072,16.798z" fill="#dbb94f"/>
		<path d="M45.064,20.406c-0.654-0.953-1.75-1.578-2.992-1.578c-2.008,0-3.635,1.627-3.635,3.632c0,2.009,1.627,3.636,3.635,3.636    c1.242,0,2.338-0.625,2.992-1.578c0.062-0.679,0.099-1.36,0.099-2.056C45.163,21.769,45.127,21.083,45.064,20.406z" fill="#dbb94f"/>
		<path d="M38.438,31.768c0,1.69,1.16,3.103,2.726,3.506c1.341-1.938,2.385-4.096,3.069-6.407c-0.604-0.453-1.346-0.73-2.16-0.73    C40.064,28.134,38.438,29.762,38.438,31.768z" fill="#dbb94f"/>
		<path d="M12.259,37.669c-1.662,0-3.047,1.123-3.476,2.648c1.852,1.434,3.928,2.588,6.171,3.396    c0.578-0.641,0.939-1.479,0.939-2.41C15.894,39.296,14.267,37.669,12.259,37.669z" fill="#dbb94f"/>
		<circle cx="22.334" cy="41.304" r="3.635" fill="#dbb94f"/>
		<path d="M32.486,37.669c-2.008,0-3.635,1.627-3.635,3.636c0,0.981,0.395,1.868,1.026,2.521c2.226-0.762,4.297-1.856,6.149-3.234    C35.695,38.928,34.247,37.669,32.486,37.669z" fill="#dbb94f"/>
	</g>
</g>
<g>
</g>
<g>
</g>
<g>
</g>
<g>
</g>
<g>
</g>
<g>
</g>
<g>
</g>
<g>
</g>
<g>
</g>
<g>
</g>
<g>
</g>
<g>
</g>
<g>
</g>
<g>
</g>
<g>
</g>
</svg>
