<?xml version="1.0" encoding="iso-8859-1"?>
<!-- Generator: Adobe Illustrator 18.1.1, SVG Export Plug-In . SVG Version: 6.00 Build 0)  -->
<svg version="1.1" id="Capa_1" xmlns="http://www.w3.org/2000/svg" xmlns:xlink="http://www.w3.org/1999/xlink" x="0px" y="0px"
	 viewBox="0 0 354.549 354.549" style="enable-background:new 0 0 354.549 354.549;" xml:space="preserve">
<g>
	<g id="Layer_5_95_">
		<g>
			<path fill="#DBB94F" d="M335.733,222.189c-19.95,11.01-47.389,21.191-74.754,25.482c-24.346,3.818-70.148-5.389-70.148-16.264
				c0-4.121,40.171,10.154,64.469,3.67c18.633-4.971,15.988-22.4,5.853-24.699c-10.076-2.287-69.109-23.914-94.324-24.66
				c-11.877-0.352-41.202,4.131-55.393,6.443c-4.861,0.791-7.909,0.703-8.213,5.355c-1.412,21.619-4.195,65.832-5.713,88.926
				c-0.031,0.488,0.646,7.051,6.063,2.432c5.927-5.053,14.24-10.656,21.929-8.912c12.063,2.738,116.424,21.857,130.819,18.51
				c20.594-4.785,78.888-39.334,90.065-50.072C363.711,231.753,350.245,214.179,335.733,222.189z"/>
			<path fill="#DBB94F" d="M74.426,191.318l-54.672-2.693c-4.221-0.209-8.532,2.973-9.581,7.066l-9.94,90.254c-1.049,4.094,1.549,7.578,5.772,7.742
				l60.59-0.006c4.224,0.162,7.942-3.152,8.266-7.365l6.653-86.959C81.836,195.144,78.647,191.525,74.426,191.318z M42.241,281.722
				c-8.349,0-15.116-6.768-15.116-15.115c0-8.35,6.768-15.117,15.116-15.117c8.349,0,15.116,6.768,15.116,15.117
				C57.357,274.955,50.589,281.722,42.241,281.722z"/>
			<path fill="#DBB94F" d="M323.903,147.457l3.885-13.061c2.362-7.939-2.159-16.291-10.1-18.654c-7.939-2.361-16.292,2.16-18.654,10.1
				l-3.814,12.822c0,0-0.591,3.082-4.064,2.049c-2.382-0.709-9.525-2.834-9.525-2.834s-3.247-0.51-2.291-3.723
				c1.396-4.693,5.585-18.771,5.585-18.771c2.362-7.939-2.159-16.293-10.1-18.654c-7.94-2.363-16.292,2.158-18.655,10.1
				c0,0-4.188,14.078-5.584,18.77c-0.975,3.275-4.197,1.795-4.197,1.795l-42.075-12.518c-2.955-0.881-3.004-5.361-3.216-7.568
				c-2.156-22.436-17.584-42.439-40.478-49.252c-30.125-8.963-61.926,8.254-70.889,38.379c-8.962,30.125,8.255,61.926,38.38,70.889
				c23.938,7.121,48.923-2.295,62.677-21.576c0.696-0.977,2.096-2.973,4.972-2.117l118.765,35.331
				c7.94,2.363,16.292-2.158,18.655-10.1c1.935-6.508-0.754-13.293-6.16-16.83C325.833,151.257,323.26,149.613,323.903,147.457z
				 M133.812,148.154c-19.555-5.818-30.731-26.459-24.913-46.016c5.818-19.555,26.461-30.73,46.016-24.912
				s30.73,26.459,24.912,46.016C174.008,142.797,153.367,153.972,133.812,148.154z"/>
		</g>
	</g>
</g>
<g>
</g>
<g>
</g>
<g>
</g>
<g>
</g>
<g>
</g>
<g>
</g>
<g>
</g>
<g>
</g>
<g>
</g>
<g>
</g>
<g>
</g>
<g>
</g>
<g>
</g>
<g>
</g>
<g>
</g>
</svg>
