<?xml version="1.0" encoding="iso-8859-1"?>
<!-- Generator: Adobe Illustrator 16.0.0, SVG Export Plug-In . SVG Version: 6.00 Build 0)  -->
<!DOCTYPE svg PUBLIC "-//W3C//DTD SVG 1.1//EN" "http://www.w3.org/Graphics/SVG/1.1/DTD/svg11.dtd">
<svg version="1.1" id="Capa_1" xmlns="http://www.w3.org/2000/svg" xmlns:xlink="http://www.w3.org/1999/xlink" x="0px" y="0px"
	 width="479.512px" height="479.512px" viewBox="0 0 479.512 479.512" style="enable-background:new 0 0 479.512 479.512;"
	 xml:space="preserve">
<g>
	<g id="iconos_42_">
		<path fill="#DBB94F" d="M474.037,438.871v-31.078c0-21.124-12.346-33.469-33.469-33.469H230.193c-28.391,0-43.031,13.445-43.031,33.469v40.344
			c0,20.914,14.047,31.375,43.031,31.375h210.375C461.691,479.512,474.037,465.465,474.037,438.871z M435.787,441.262H225.412
			v-28.688h210.375V441.262z"/>
		<path fill="#DBB94F" d="M311.475,154.387v9.562v81.96l0,0v0.01l12.183,32.78h-20.502L103.127,0L59.053,26.584l13.359,23.418v123.509H58.298
			l9.486,66.938h4.15h0.478v20.225c-8.606,3.911-18.169,12.307-18.169,27.387c0,10.127,3.95,17.519,9.725,22.453l-51.857,44.686
			h14.65l45.929-39.579c4.16,1.626,8.606,2.524,13.005,2.524c4.418,0,8.807-1.176,12.766-3.309l49.792,40.363h14.927l0.105-0.134
			l-57.279-46.426c3.882-4.677,6.455-10.949,6.455-18.973c0-5.288-4.284-9.562-9.562-9.562c-5.279,0-9.562,4.274-9.562,9.562
			c0,3.434-0.928,5.585-2.142,6.972l-2.62-2.123c-1.788-1.444-4.38-1.425-6.129,0.096l-3.586,3.089
			c-3.099-1.435-5.489-4.246-5.489-9.63c0-8.645,8.578-10.738,10.194-11.045c4.609-0.793,7.975-4.771,7.975-9.438v-27.139h6.694
			h3.92l13.378-66.938h-9.648H101.1v-69.405l114.75,220.846v1.521v2.878v6.723h38.25v19.125h133.875h9.562v-19.125h47.812h9.562
			V154.387H311.475z M228.759,204.112l0.115,0.163l-39.015,25.389l20.062-51.466L228.759,204.112z M91.537,173.512h-4.781h-4.781
			V68.037l9.562,18.035V173.512z M99.856,76.032L83.352,44.686l25.733-16.916L99.856,76.032z M122.233,47.296l18.341,31.824
			l-29.605,19.068L122.233,47.296z M125.168,116.471l27.894-18.14l-10.92,49.677L125.168,116.471z M164.853,114.54l20.569,29.997
			l-30.925,19.804L164.853,114.54z M161.678,187.196l34.559-23.677l-19.68,52.708L161.678,187.196z M212.828,278.125l-16.667-29.414
			l41.376-29.548L212.828,278.125z M225.813,299.02l28.286-60.961l23.008,31.375L225.813,299.02z M416.662,250.012h-66.938v-57.375
			h66.938V250.012z"/>
		<polygon fill="#DBB94F" points="15.037,412.574 5.475,412.574 5.475,431.699 158.475,431.699 158.475,412.574 139.35,412.574 139.35,393.449 
			139.35,383.887 158.475,383.887 158.475,364.762 5.475,364.762 5.475,383.887 24.6,383.887 24.6,412.574 		"/>
	</g>
</g>
<g>
</g>
<g>
</g>
<g>
</g>
<g>
</g>
<g>
</g>
<g>
</g>
<g>
</g>
<g>
</g>
<g>
</g>
<g>
</g>
<g>
</g>
<g>
</g>
<g>
</g>
<g>
</g>
<g>
</g>
</svg>
