<?xml version="1.0" encoding="iso-8859-1"?>
<!-- Generator: Adobe Illustrator 17.1.0, SVG Export Plug-In . SVG Version: 6.00 Build 0)  -->
<!DOCTYPE svg PUBLIC "-//W3C//DTD SVG 1.1//EN" "http://www.w3.org/Graphics/SVG/1.1/DTD/svg11.dtd">
<svg version="1.1" id="Capa_1" xmlns="http://www.w3.org/2000/svg" xmlns:xlink="http://www.w3.org/1999/xlink" x="0px" y="0px"
	 viewBox="0 0 206.274 206.274" style="enable-background:new 0 0 206.274 206.274;" xml:space="preserve">
<path style="fill:#DBB94F;" d="M162.298,122.226c-4.112-1.019-8.43-1.876-12.896-2.605c6.068-1.405,11.726-3.148,16.807-5.221
	c15.869-6.473,24.608-15.525,24.608-25.487c0-16.279-13.566-33.569-50.605-36.682c21.858-3.469,39.711-11.015,39.711-24.432
	C179.924,2.882,149.664,0,126.903,0C90.424,0,46.365,15.128,46.365,33.915c0,17.022,20.022,20.123,49.635,20.609
	c-32.168,5.287-64.221,17.754-64.221,34.39c0,9.962,8.739,19.014,24.608,25.487c1.988,0.811,4.069,1.568,6.222,2.279
	c-44.49,4.677-60.912,25.861-60.912,45.846c0,24.532,44.558,43.749,101.44,43.749c32.641,0,54.272-2.3,70.137-7.459
	c20.771-6.754,31.303-18.963,31.303-36.29C204.577,142.738,190.352,129.18,162.298,122.226z M60.08,135.635
	c-6.975,0.753-26.425,4.375-32.586,11.988c-0.791,0.977-1.946,1.484-3.112,1.484c-0.884,0-1.773-0.292-2.514-0.891
	c-1.717-1.39-1.983-3.908-0.593-5.625c9.338-11.539,35.05-14.6,37.951-14.91c2.187-0.24,4.166,1.353,4.402,3.549
	C63.865,133.426,62.276,135.398,60.08,135.635z M88.692,75.051c-0.229,0.044-23.024,4.468-33.558,12.675
	c-0.73,0.569-1.596,0.845-2.456,0.845c-1.191,0-2.37-0.529-3.158-1.542c-1.358-1.743-1.046-4.256,0.697-5.614
	c12.061-9.397,35.966-14.031,36.978-14.223c2.17-0.414,4.263,1.011,4.677,3.18S90.862,74.637,88.692,75.051z M95.987,20.208
	c-0.197,0.038-19.789,3.842-28.796,10.859c-0.73,0.569-1.596,0.845-2.456,0.845c-1.191,0-2.37-0.529-3.158-1.542
	c-1.358-1.743-1.046-4.256,0.697-5.614c10.534-8.207,31.335-12.239,32.215-12.407c2.168-0.415,4.263,1.011,4.677,3.18
	C99.579,17.699,98.156,19.793,95.987,20.208z"/>
<g>
</g>
<g>
</g>
<g>
</g>
<g>
</g>
<g>
</g>
<g>
</g>
<g>
</g>
<g>
</g>
<g>
</g>
<g>
</g>
<g>
</g>
<g>
</g>
<g>
</g>
<g>
</g>
<g>
</g>
</svg>
