<?xml version="1.0" encoding="iso-8859-1"?>
<!-- Generator: Adobe Illustrator 16.0.0, SVG Export Plug-In . SVG Version: 6.00 Build 0)  -->
<!DOCTYPE svg PUBLIC "-//W3C//DTD SVG 1.1//EN" "http://www.w3.org/Graphics/SVG/1.1/DTD/svg11.dtd">
<svg version="1.1" id="Capa_1" xmlns="http://www.w3.org/2000/svg" xmlns:xlink="http://www.w3.org/1999/xlink" x="0px" y="0px"
	 width="110.402px" height="110.402px" viewBox="0 0 110.402 110.402" style="enable-background:new 0 0 110.402 110.402;"
	 xml:space="preserve">
<g>
	<path fill="#DBB94F" d="M109.649,75.593l-0.994-2.901c-0.551-1.603-2.291-2.902-3.896-2.902h-3.379c-2.108-5.99-4.31-11.314-5.024-12.949
		c-1.326-3.015-5.565-3.653-7.898-4.316c0,0-3.896-1.194-16.896-1.194s-16.894,1.194-16.894,1.194
		c-2.73,0.929-6.528,1.521-8.036,4.447c-0.603,1.168-2.828,6.641-4.976,12.818H38.31c-1.601,0-3.346,1.299-3.896,2.902l-0.994,2.901
		c-0.552,1.603,0.303,3.474,1.908,3.474h3.342c-0.888,2.604-1.489,3.809-1.489,3.809c-0.248,0.426-0.425,2.391-0.425,2.918v21.709
		c0,1.604,1.297,2.9,2.897,2.9h8.061c1.601,0,2.901-1.297,2.901-2.9v-4.064h41.894v4.064c0,1.602,1.298,2.9,2.901,2.9h8.062
		c1.6,0,2.902-1.297,2.902-2.9V85.793c0-0.527-0.18-2.492-0.428-2.918c0,0-0.608-1.203-1.517-3.809h3.312
		C109.347,79.066,110.199,77.195,109.649,75.593z M54.447,93.002h-3.854c-3.444,0-6.889-0.506-6.889-2.902v-2.901
		c0-2.802,1.484-2.9,3.09-2.9c1.562,0,4.662,1.449,6.7,2.443c2.227,1.088,4.714,1.991,4.714,3.809
		C58.209,92.227,57.351,93.002,54.447,93.002z M46.397,72.893c2.035-8.078,4.251-11.111,4.736-12.381
		c0.392-0.927,0.77-3.781,20.426-3.781c19.655,0,20.118,3.264,20.17,3.301c0.606,1.73,3.01,5.412,4.935,12.861
		c0,0-8.304,2.7-25.104,2.7C54.76,75.593,46.397,72.893,46.397,72.893z M99.421,90.098c0,2.395-3.444,2.901-6.891,2.901h-3.854
		c-2.903,0-3.761-0.771-3.761-2.444c0-1.814,2.484-2.722,4.713-3.81c2.039-0.998,5.138-2.445,6.7-2.445
		c1.602,0,3.091,0.104,3.091,2.902L99.421,90.098L99.421,90.098z M38.371,65.129c1.723-4.73,3.431-8.951,4.116-10.287
		c2.156-4.182,6.468-5.46,9.319-6.31c0.476-0.14,0.933-0.279,1.367-0.425c0.891-0.28,5.355-1.447,18.392-1.447
		c0.107,0,0.191,0.006,0.293,0.006c-0.037-0.099-0.061-0.168-0.098-0.271h3.312c1.604,0,2.455-1.867,1.91-3.472l-0.994-2.895
		c-0.551-1.601-2.291-2.901-3.896-2.901h-3.379c-2.109-5.992-4.311-11.317-5.025-12.95c-1.326-3.016-5.567-3.654-7.899-4.316
		c0,0-3.896-1.194-16.895-1.194C25.896,18.667,22,19.861,22,19.861c-2.73,0.928-6.524,1.521-8.036,4.447
		c-0.598,1.171-2.828,6.641-4.971,12.819h-3.35c-1.601,0-3.346,1.297-3.896,2.901l-0.994,2.898c-0.55,1.602,0.304,3.473,1.909,3.473
		h3.342c-0.887,2.604-1.488,3.809-1.488,3.809c-0.248,0.425-0.425,2.389-0.425,2.917v21.709c0,1.604,1.297,2.902,2.897,2.902h8.061
		c1.601,0,2.901-1.299,2.901-2.902V70.77h12.27c1.329-3.275,4.628-5.642,8.091-5.642L38.371,65.129L38.371,65.129z M21.78,60.336
		h-3.85c-3.444,0-6.888-0.504-6.888-2.902v-2.902c0-2.8,1.483-2.902,3.085-2.902c1.562,0,4.662,1.451,6.7,2.444
		c2.227,1.087,4.714,1.993,4.714,3.808C25.543,59.559,24.683,60.336,21.78,60.336z M13.735,40.225
		c2.03-8.077,4.247-11.111,4.737-12.38c0.392-0.924,0.77-3.78,20.426-3.78c19.657,0,20.119,3.262,20.167,3.299
		c0.607,1.731,3.01,5.413,4.937,12.861c0,0-8.305,2.702-25.104,2.702C22.098,42.927,13.735,40.225,13.735,40.225z M51.139,9.178
		c0.392-0.924,0.77-3.78,20.427-3.78c19.655,0,20.116,3.262,20.168,3.3c0.606,1.731,3.013,5.413,4.936,12.861
		c0,0-8.305,2.702-25.104,2.702c-0.994,0-1.855-0.037-2.795-0.057c0.787,1.909,1.948,4.808,3.226,8.256h0.103
		c3.612,0,7.106,2.548,8.307,6.058l0.994,2.898c0.631,1.839,0.523,3.808-0.224,5.524c5.726,0.359,8.12,0.966,8.646,1.129
		l0.867,0.225c2.949,0.747,7.883,1.998,9.939,6.677c0.304,0.688,0.919,2.162,1.695,4.103h1.146c1.601,0,2.902-1.297,2.902-2.9
		V34.458c0-0.527-0.181-2.492-0.427-2.917c0,0-0.609-1.204-1.518-3.809h3.312c1.604,0,2.455-1.867,1.908-3.472l-0.998-2.898
		c-0.551-1.601-2.291-2.902-3.896-2.902h-3.379c-2.109-5.992-4.309-11.316-5.025-12.95c-1.324-3.016-5.566-3.654-7.899-4.317
		c0,0-3.896-1.193-16.894-1.193S54.664,1.193,54.664,1.193c-2.73,0.929-6.528,1.521-8.036,4.447
		c-0.448,0.882-1.82,4.191-3.385,8.405c2.139,0.047,3.906,0.135,5.479,0.237C49.884,11.418,50.841,9.958,51.139,9.178z
		 M99.421,35.862v2.902c0,2.394-3.444,2.903-6.891,2.903h-3.854c-2.903,0-3.761-0.771-3.761-2.445c0-1.812,2.49-2.721,4.713-3.809
		c2.039-0.998,5.138-2.444,6.7-2.444C97.932,32.965,99.421,33.067,99.421,35.862z"/>
</g>
<g>
</g>
<g>
</g>
<g>
</g>
<g>
</g>
<g>
</g>
<g>
</g>
<g>
</g>
<g>
</g>
<g>
</g>
<g>
</g>
<g>
</g>
<g>
</g>
<g>
</g>
<g>
</g>
<g>
</g>
</svg>
