<?xml version="1.0" encoding="iso-8859-1"?>
<!-- Generator: Adobe Illustrator 18.1.1, SVG Export Plug-In . SVG Version: 6.00 Build 0)  -->
<svg version="1.1" id="Capa_1" xmlns="http://www.w3.org/2000/svg" xmlns:xlink="http://www.w3.org/1999/xlink" x="0px" y="0px"
	 viewBox="0 0 21.41 21.41" style="enable-background:new 0 0 21.41 21.41;" xml:space="preserve">
<g>
	<g>
		<polygon style="fill:#DBB94F;" points="4.501,9.174 7.122,8.248 7.122,2.305 4.501,2.305 		"/>
		<polygon style="fill:#DBB94F;" points="11.685,9.174 14.308,8.248 14.308,2.305 11.685,2.305 		"/>
		<path style="fill:#DBB94F;" d="M1.299,21.41h18.813v-6.4H1.299V21.41z M10.309,15.996h2.018v3.229h-2.018V15.996z M6.742,15.996
			h2.019v3.229H6.742V15.996z M3.043,15.996H5.06v3.229H3.043V15.996z"/>
		<polygon style="fill:#DBB94F;" points="15.67,11.221 15.155,8.607 8.615,11.221 7.832,8.607 1.299,11.221 1.299,14.008 
			20.111,14.008 20.111,11.221 		"/>
		<path style="fill:#030104;" d="M3.316,1.879C3.645,1.817,3.899,1.632,4.1,1.43c0.209-0.205,0.369-0.41,0.608-0.533
			c0.226-0.127,0.514-0.163,0.7-0.126c0.178,0.031,0.292,0.108,0.424,0.311c0.124,0.194,0.214,0.441,0.324,0.7h0.053
			c0.094-0.278,0.098-0.574,0.003-0.873c-0.05-0.149-0.136-0.302-0.28-0.423C5.791,0.362,5.582,0.303,5.409,0.323
			C5.049,0.367,4.838,0.594,4.614,0.75c-0.221,0.16-0.45,0.334-0.682,0.438C3.693,1.291,3.455,1.362,3.247,1.375
			C3.036,1.38,2.872,1.312,2.708,1.187C2.369,0.935,2.098,0.47,1.813,0L1.76,0.01c-0.036,0.564,0.1,1.166,0.588,1.623
			C2.596,1.855,2.99,1.956,3.316,1.879z"/>
		<path style="fill:#DBB94F;" d="M11.435,1.925c0.248-0.051,0.424-0.195,0.563-0.354c0.135-0.152,0.246-0.303,0.41-0.382
			c0.158-0.085,0.369-0.079,0.472-0.042c0.093,0.034,0.137,0.047,0.237,0.174c0.09,0.119,0.168,0.283,0.275,0.46h0.054
			c0.097-0.196,0.111-0.409,0.051-0.633c-0.033-0.111-0.097-0.229-0.207-0.324c-0.108-0.099-0.275-0.143-0.408-0.125
			c-0.275,0.043-0.413,0.229-0.567,0.343c-0.153,0.12-0.317,0.227-0.488,0.29c-0.168,0.052-0.334,0.088-0.458,0.089
			c-0.129-0.007-0.21-0.05-0.31-0.121c-0.213-0.145-0.422-0.446-0.67-0.759l-0.053,0.011c-0.075,0.406,0,0.844,0.361,1.194
			C10.885,1.915,11.191,1.99,11.435,1.925z"/>
	</g>
</g>
<g>
</g>
<g>
</g>
<g>
</g>
<g>
</g>
<g>
</g>
<g>
</g>
<g>
</g>
<g>
</g>
<g>
</g>
<g>
</g>
<g>
</g>
<g>
</g>
<g>
</g>
<g>
</g>
<g>
</g>
</svg>
